<mxfile host="app.diagrams.net" modified="2021-04-19T09:57:08.587Z" agent="5.0 (Windows NT 6.1; Win64; x64) AppleWebKit/537.36 (KHTML, like Gecko) Chrome/89.0.4389.72 Safari/537.36" etag="ZZsxnsVGDC1MLyr0XPD1" version="14.2.9" type="github">
  <diagram id="ljZOV2Nh3VgaueYTW_84" name="第 1 页">
    <mxGraphModel dx="860" dy="474" grid="1" gridSize="10" guides="1" tooltips="1" connect="1" arrows="1" fold="1" page="1" pageScale="1" pageWidth="827" pageHeight="1169" math="0" shadow="0">
      <root>
        <mxCell id="0" />
        <mxCell id="1" parent="0" />
        <mxCell id="X-uOdLo9Hhw9t05ieMYw-5" value="" style="edgeStyle=orthogonalEdgeStyle;rounded=0;orthogonalLoop=1;jettySize=auto;html=1;" edge="1" parent="1" source="X-uOdLo9Hhw9t05ieMYw-1" target="X-uOdLo9Hhw9t05ieMYw-2">
          <mxGeometry relative="1" as="geometry" />
        </mxCell>
        <mxCell id="X-uOdLo9Hhw9t05ieMYw-1" value="Kafka" style="ellipse;whiteSpace=wrap;html=1;" vertex="1" parent="1">
          <mxGeometry x="210" y="60" width="120" height="80" as="geometry" />
        </mxCell>
        <mxCell id="X-uOdLo9Hhw9t05ieMYw-6" value="" style="edgeStyle=orthogonalEdgeStyle;rounded=0;orthogonalLoop=1;jettySize=auto;html=1;" edge="1" parent="1" source="X-uOdLo9Hhw9t05ieMYw-2" target="X-uOdLo9Hhw9t05ieMYw-3">
          <mxGeometry relative="1" as="geometry" />
        </mxCell>
        <mxCell id="X-uOdLo9Hhw9t05ieMYw-2" value="DeviceUpListener&lt;br&gt;#ruleRuleEngine" style="rounded=0;whiteSpace=wrap;html=1;" vertex="1" parent="1">
          <mxGeometry x="210" y="170" width="120" height="60" as="geometry" />
        </mxCell>
        <mxCell id="X-uOdLo9Hhw9t05ieMYw-7" value="" style="edgeStyle=orthogonalEdgeStyle;rounded=0;orthogonalLoop=1;jettySize=auto;html=1;" edge="1" parent="1" source="X-uOdLo9Hhw9t05ieMYw-3" target="X-uOdLo9Hhw9t05ieMYw-4">
          <mxGeometry relative="1" as="geometry" />
        </mxCell>
        <mxCell id="X-uOdLo9Hhw9t05ieMYw-3" value="RuleInfoServiceImpl&lt;br&gt;#getRuleInfoListBy&lt;br&gt;RuleEngineCondition" style="rounded=0;whiteSpace=wrap;html=1;" vertex="1" parent="1">
          <mxGeometry x="210" y="270" width="120" height="60" as="geometry" />
        </mxCell>
        <mxCell id="X-uOdLo9Hhw9t05ieMYw-9" value="" style="edgeStyle=orthogonalEdgeStyle;rounded=0;orthogonalLoop=1;jettySize=auto;html=1;" edge="1" parent="1" source="X-uOdLo9Hhw9t05ieMYw-4" target="X-uOdLo9Hhw9t05ieMYw-8">
          <mxGeometry relative="1" as="geometry" />
        </mxCell>
        <mxCell id="X-uOdLo9Hhw9t05ieMYw-4" value="RuleEngineManager&lt;br&gt;#handle" style="rounded=0;whiteSpace=wrap;html=1;" vertex="1" parent="1">
          <mxGeometry x="210" y="370" width="120" height="60" as="geometry" />
        </mxCell>
        <mxCell id="X-uOdLo9Hhw9t05ieMYw-11" value="" style="edgeStyle=orthogonalEdgeStyle;rounded=0;orthogonalLoop=1;jettySize=auto;html=1;" edge="1" parent="1" source="X-uOdLo9Hhw9t05ieMYw-8" target="X-uOdLo9Hhw9t05ieMYw-10">
          <mxGeometry relative="1" as="geometry" />
        </mxCell>
        <mxCell id="X-uOdLo9Hhw9t05ieMYw-8" value="RuleEngineManager&lt;br&gt;#ruleSqlParse" style="rounded=0;whiteSpace=wrap;html=1;" vertex="1" parent="1">
          <mxGeometry x="210" y="470" width="120" height="60" as="geometry" />
        </mxCell>
        <mxCell id="X-uOdLo9Hhw9t05ieMYw-13" value="" style="edgeStyle=orthogonalEdgeStyle;rounded=0;orthogonalLoop=1;jettySize=auto;html=1;" edge="1" parent="1" source="X-uOdLo9Hhw9t05ieMYw-10" target="X-uOdLo9Hhw9t05ieMYw-12">
          <mxGeometry relative="1" as="geometry" />
        </mxCell>
        <mxCell id="X-uOdLo9Hhw9t05ieMYw-10" value="RuleEngineManager&lt;br&gt;ParseData" style="whiteSpace=wrap;html=1;rounded=0;" vertex="1" parent="1">
          <mxGeometry x="210" y="580" width="120" height="60" as="geometry" />
        </mxCell>
        <mxCell id="X-uOdLo9Hhw9t05ieMYw-15" value="" style="edgeStyle=orthogonalEdgeStyle;rounded=0;orthogonalLoop=1;jettySize=auto;html=1;" edge="1" parent="1" source="X-uOdLo9Hhw9t05ieMYw-12" target="X-uOdLo9Hhw9t05ieMYw-14">
          <mxGeometry relative="1" as="geometry" />
        </mxCell>
        <mxCell id="X-uOdLo9Hhw9t05ieMYw-12" value="RuleEngineManager&lt;br&gt;VerifyFiled" style="whiteSpace=wrap;html=1;rounded=0;" vertex="1" parent="1">
          <mxGeometry x="530" y="470" width="120" height="60" as="geometry" />
        </mxCell>
        <mxCell id="X-uOdLo9Hhw9t05ieMYw-17" value="" style="edgeStyle=orthogonalEdgeStyle;rounded=0;orthogonalLoop=1;jettySize=auto;html=1;" edge="1" parent="1" source="X-uOdLo9Hhw9t05ieMYw-14" target="X-uOdLo9Hhw9t05ieMYw-16">
          <mxGeometry relative="1" as="geometry" />
        </mxCell>
        <mxCell id="X-uOdLo9Hhw9t05ieMYw-14" value="RuleEngineManager&lt;br&gt;#getRuleString" style="whiteSpace=wrap;html=1;rounded=0;" vertex="1" parent="1">
          <mxGeometry x="530" y="380" width="120" height="60" as="geometry" />
        </mxCell>
        <mxCell id="X-uOdLo9Hhw9t05ieMYw-20" style="edgeStyle=orthogonalEdgeStyle;rounded=0;orthogonalLoop=1;jettySize=auto;html=1;exitX=0.25;exitY=0;exitDx=0;exitDy=0;entryX=0.5;entryY=1;entryDx=0;entryDy=0;" edge="1" parent="1" source="X-uOdLo9Hhw9t05ieMYw-16" target="X-uOdLo9Hhw9t05ieMYw-18">
          <mxGeometry relative="1" as="geometry">
            <Array as="points">
              <mxPoint x="560" y="255" />
              <mxPoint x="500" y="255" />
            </Array>
          </mxGeometry>
        </mxCell>
        <mxCell id="X-uOdLo9Hhw9t05ieMYw-21" style="edgeStyle=orthogonalEdgeStyle;rounded=0;orthogonalLoop=1;jettySize=auto;html=1;exitX=0.75;exitY=0;exitDx=0;exitDy=0;" edge="1" parent="1" source="X-uOdLo9Hhw9t05ieMYw-16" target="X-uOdLo9Hhw9t05ieMYw-19">
          <mxGeometry relative="1" as="geometry" />
        </mxCell>
        <mxCell id="X-uOdLo9Hhw9t05ieMYw-16" value="RuleEngineManager&lt;br&gt;#ruleEngine" style="whiteSpace=wrap;html=1;rounded=0;" vertex="1" parent="1">
          <mxGeometry x="530" y="280" width="120" height="60" as="geometry" />
        </mxCell>
        <mxCell id="X-uOdLo9Hhw9t05ieMYw-26" style="edgeStyle=orthogonalEdgeStyle;rounded=0;orthogonalLoop=1;jettySize=auto;html=1;exitX=0.5;exitY=0;exitDx=0;exitDy=0;entryX=0.5;entryY=1;entryDx=0;entryDy=0;" edge="1" parent="1" source="X-uOdLo9Hhw9t05ieMYw-18" target="X-uOdLo9Hhw9t05ieMYw-22">
          <mxGeometry relative="1" as="geometry" />
        </mxCell>
        <mxCell id="X-uOdLo9Hhw9t05ieMYw-18" value="DeviceRuleAction&lt;br&gt;#doHandler" style="whiteSpace=wrap;html=1;rounded=0;" vertex="1" parent="1">
          <mxGeometry x="440" y="170" width="120" height="60" as="geometry" />
        </mxCell>
        <mxCell id="X-uOdLo9Hhw9t05ieMYw-27" style="edgeStyle=orthogonalEdgeStyle;rounded=0;orthogonalLoop=1;jettySize=auto;html=1;exitX=0.5;exitY=0;exitDx=0;exitDy=0;entryX=0.5;entryY=1;entryDx=0;entryDy=0;" edge="1" parent="1" source="X-uOdLo9Hhw9t05ieMYw-19" target="X-uOdLo9Hhw9t05ieMYw-22">
          <mxGeometry relative="1" as="geometry" />
        </mxCell>
        <mxCell id="X-uOdLo9Hhw9t05ieMYw-19" value="ServiceRuleAction&lt;br&gt;#doHandler" style="whiteSpace=wrap;html=1;rounded=0;" vertex="1" parent="1">
          <mxGeometry x="620" y="170" width="120" height="60" as="geometry" />
        </mxCell>
        <mxCell id="X-uOdLo9Hhw9t05ieMYw-22" value="Kafka" style="ellipse;whiteSpace=wrap;html=1;" vertex="1" parent="1">
          <mxGeometry x="530" y="60" width="120" height="80" as="geometry" />
        </mxCell>
      </root>
    </mxGraphModel>
  </diagram>
</mxfile>
